<svg width="14" height="13" viewBox="0 0 14 13" fill="none" xmlns="http://www.w3.org/2000/svg">
<path fill-rule="evenodd" clip-rule="evenodd" d="M7.56199 1.07776C7.31189 0.634237 6.6882 0.634235 6.4381 1.07776L0.421727 11.7472C0.17111 12.1916 0.483475 12.7479 0.983672 12.7479H13.0164C13.5166 12.7479 13.829 12.1916 13.5784 11.7472L7.56199 1.07776ZM7.00007 4.70996C7.35868 4.70996 7.64939 5.00844 7.64939 5.37663V8.70996C7.64939 9.07815 7.35868 9.37663 7.00007 9.37663C6.64146 9.37663 6.35074 9.07815 6.35074 8.70996V5.37663C6.35074 5.00844 6.64145 4.70996 7.00007 4.70996ZM7.64939 10.71C7.64939 11.0782 7.35868 11.3766 7.00007 11.3766C6.64145 11.3766 6.35074 11.0782 6.35074 10.71C6.35074 10.3418 6.64145 10.0433 7.00007 10.0433C7.35868 10.0433 7.64939 10.3418 7.64939 10.71Z" fill="#E4162F"/>
</svg>
